<svg xmlns="http://www.w3.org/2000/svg" viewBox="0 0 512 512" width="512" height="512">
<defs>
 <radialGradient id="bg" cx="50%" cy="42%" r="75%"><stop offset="0" stop-color="#3a1a0c"/><stop offset=".45" stop-color="#17100d"/><stop offset="1" stop-color="#09090b"/></radialGradient>
 <linearGradient id="gold" x1="0" y1="0" x2="0" y2="1"><stop offset="0" stop-color="#fff1b8"/><stop offset=".28" stop-color="#f6dd8e"/><stop offset=".55" stop-color="#d8b449"/><stop offset=".8" stop-color="#9c7424"/><stop offset="1" stop-color="#e9c768"/></linearGradient>
 <linearGradient id="gold2" x1="0" y1="0" x2="1" y2="1"><stop offset="0" stop-color="#9c7424"/><stop offset=".5" stop-color="#f6dd8e"/><stop offset="1" stop-color="#7a5616"/></linearGradient>
 <radialGradient id="face" cx="45%" cy="35%" r="70%"><stop offset="0" stop-color="#fbe7a6"/><stop offset=".6" stop-color="#d8b449"/><stop offset="1" stop-color="#8a6420"/></radialGradient>
 <linearGradient id="strap" x1="0" y1="0" x2="0" y2="1"><stop offset="0" stop-color="#2a2a31"/><stop offset=".5" stop-color="#141418"/><stop offset="1" stop-color="#050506"/></linearGradient>
 <radialGradient id="ruby" cx="35%" cy="30%" r="70%"><stop offset="0" stop-color="#ff9a8a"/><stop offset=".5" stop-color="#e2332b"/><stop offset="1" stop-color="#8f0f0b"/></radialGradient>
 <linearGradient id="red" x1="0" y1="0" x2="0" y2="1"><stop offset="0" stop-color="#ff4a3d"/><stop offset="1" stop-color="#b3150f"/></linearGradient>
 <filter id="glow" x="-30%" y="-30%" width="160%" height="160%"><feGaussianBlur stdDeviation="14" result="b"/><feColorMatrix in="b" values="1 0 0 0 .6  0 .8 0 0 .35  0 0 .2 0 0  0 0 0 .55 0"/><feMerge><feMergeNode/><feMergeNode in="SourceGraphic"/></feMerge></filter>
 <filter id="drop"><feDropShadow dx="0" dy="6" stdDeviation="6" flood-color="#000" flood-opacity=".7"/></filter>
</defs>
<rect width="512" height="512" fill="url(#bg)"/>
<!-- strap -->
<rect x="-10" y="196" width="532" height="120" fill="url(#strap)"/>
<rect x="-10" y="196" width="532" height="3" fill="#3a3a44"/>
<line x1="0" y1="208" x2="512" y2="208" stroke="#d8b449" stroke-width="2.5" stroke-dasharray="9 7" opacity=".75"/>
<line x1="0" y1="304" x2="512" y2="304" stroke="#d8b449" stroke-width="2.5" stroke-dasharray="9 7" opacity=".75"/>
<!-- side plates -->
<g filter="url(#drop)">
 <path d="M28 222 h56 l10 34 l-10 34 h-56 l-10 -34 z" fill="url(#gold)" stroke="#6b4a12" stroke-width="3"/>
 <path d="M484 222 h-56 l-10 34 l10 34 h56 l10 -34 z" fill="url(#gold)" stroke="#6b4a12" stroke-width="3"/>
 <circle cx="56" cy="256" r="10" fill="url(#ruby)" stroke="#5a0d09" stroke-width="2"/>
 <circle cx="456" cy="256" r="10" fill="url(#ruby)" stroke="#5a0d09" stroke-width="2"/>
</g>
<!-- main plate -->
<g filter="url(#glow)">
 <polygon points="256.0,78.0 288.0,95.2 324.1,91.5 347.1,119.6 381.9,130.1 392.4,164.9 420.5,187.9 416.8,224.0 434.0,256.0 416.8,288.0 420.5,324.1 392.4,347.1 381.9,381.9 347.1,392.4 324.1,420.5 288.0,416.8 256.0,434.0 224.0,416.8 187.9,420.5 164.9,392.4 130.1,381.9 119.6,347.1 91.5,324.1 95.2,288.0 78.0,256.0 95.2,224.0 91.5,187.9 119.6,164.9 130.1,130.1 164.9,119.6 187.9,91.5 224.0,95.2" fill="url(#gold2)" stroke="#5c3f0c" stroke-width="4" stroke-linejoin="round"/>
</g>
<circle cx="256" cy="256" r="150" fill="url(#gold)" stroke="#6b4a12" stroke-width="4"/>
<circle cx="256" cy="256" r="120" fill="url(#face)" stroke="#7a5616" stroke-width="5"/>
<line x1="256" y1="256" x2="374.0" y2="256.0" stroke="#b8902e" stroke-width="3" opacity=".35"/><line x1="256" y1="256" x2="372.2" y2="276.5" stroke="#b8902e" stroke-width="3" opacity=".35"/><line x1="256" y1="256" x2="366.9" y2="296.4" stroke="#b8902e" stroke-width="3" opacity=".35"/><line x1="256" y1="256" x2="358.2" y2="315.0" stroke="#b8902e" stroke-width="3" opacity=".35"/><line x1="256" y1="256" x2="346.4" y2="331.8" stroke="#b8902e" stroke-width="3" opacity=".35"/><line x1="256" y1="256" x2="331.8" y2="346.4" stroke="#b8902e" stroke-width="3" opacity=".35"/><line x1="256" y1="256" x2="315.0" y2="358.2" stroke="#b8902e" stroke-width="3" opacity=".35"/><line x1="256" y1="256" x2="296.4" y2="366.9" stroke="#b8902e" stroke-width="3" opacity=".35"/><line x1="256" y1="256" x2="276.5" y2="372.2" stroke="#b8902e" stroke-width="3" opacity=".35"/><line x1="256" y1="256" x2="256.0" y2="374.0" stroke="#b8902e" stroke-width="3" opacity=".35"/><line x1="256" y1="256" x2="235.5" y2="372.2" stroke="#b8902e" stroke-width="3" opacity=".35"/><line x1="256" y1="256" x2="215.6" y2="366.9" stroke="#b8902e" stroke-width="3" opacity=".35"/><line x1="256" y1="256" x2="197.0" y2="358.2" stroke="#b8902e" stroke-width="3" opacity=".35"/><line x1="256" y1="256" x2="180.2" y2="346.4" stroke="#b8902e" stroke-width="3" opacity=".35"/><line x1="256" y1="256" x2="165.6" y2="331.8" stroke="#b8902e" stroke-width="3" opacity=".35"/><line x1="256" y1="256" x2="153.8" y2="315.0" stroke="#b8902e" stroke-width="3" opacity=".35"/><line x1="256" y1="256" x2="145.1" y2="296.4" stroke="#b8902e" stroke-width="3" opacity=".35"/><line x1="256" y1="256" x2="139.8" y2="276.5" stroke="#b8902e" stroke-width="3" opacity=".35"/><line x1="256" y1="256" x2="138.0" y2="256.0" stroke="#b8902e" stroke-width="3" opacity=".35"/><line x1="256" y1="256" x2="139.8" y2="235.5" stroke="#b8902e" stroke-width="3" opacity=".35"/><line x1="256" y1="256" x2="145.1" y2="215.6" stroke="#b8902e" stroke-width="3" opacity=".35"/><line x1="256" y1="256" x2="153.8" y2="197.0" stroke="#b8902e" stroke-width="3" opacity=".35"/><line x1="256" y1="256" x2="165.6" y2="180.2" stroke="#b8902e" stroke-width="3" opacity=".35"/><line x1="256" y1="256" x2="180.2" y2="165.6" stroke="#b8902e" stroke-width="3" opacity=".35"/><line x1="256" y1="256" x2="197.0" y2="153.8" stroke="#b8902e" stroke-width="3" opacity=".35"/><line x1="256" y1="256" x2="215.6" y2="145.1" stroke="#b8902e" stroke-width="3" opacity=".35"/><line x1="256" y1="256" x2="235.5" y2="139.8" stroke="#b8902e" stroke-width="3" opacity=".35"/><line x1="256" y1="256" x2="256.0" y2="138.0" stroke="#b8902e" stroke-width="3" opacity=".35"/><line x1="256" y1="256" x2="276.5" y2="139.8" stroke="#b8902e" stroke-width="3" opacity=".35"/><line x1="256" y1="256" x2="296.4" y2="145.1" stroke="#b8902e" stroke-width="3" opacity=".35"/><line x1="256" y1="256" x2="315.0" y2="153.8" stroke="#b8902e" stroke-width="3" opacity=".35"/><line x1="256" y1="256" x2="331.8" y2="165.6" stroke="#b8902e" stroke-width="3" opacity=".35"/><line x1="256" y1="256" x2="346.4" y2="180.2" stroke="#b8902e" stroke-width="3" opacity=".35"/><line x1="256" y1="256" x2="358.2" y2="197.0" stroke="#b8902e" stroke-width="3" opacity=".35"/><line x1="256" y1="256" x2="366.9" y2="215.6" stroke="#b8902e" stroke-width="3" opacity=".35"/><line x1="256" y1="256" x2="372.2" y2="235.5" stroke="#b8902e" stroke-width="3" opacity=".35"/>
<circle cx="378.0" cy="306.5" r="7" fill="url(#ruby)" stroke="#5a0d09" stroke-width="1.5"/><circle cx="306.5" cy="378.0" r="7" fill="url(#ruby)" stroke="#5a0d09" stroke-width="1.5"/><circle cx="205.5" cy="378.0" r="7" fill="url(#ruby)" stroke="#5a0d09" stroke-width="1.5"/><circle cx="134.0" cy="306.5" r="7" fill="url(#ruby)" stroke="#5a0d09" stroke-width="1.5"/><circle cx="134.0" cy="205.5" r="7" fill="url(#ruby)" stroke="#5a0d09" stroke-width="1.5"/><circle cx="205.5" cy="134.0" r="7" fill="url(#ruby)" stroke="#5a0d09" stroke-width="1.5"/><circle cx="306.5" cy="134.0" r="7" fill="url(#ruby)" stroke="#5a0d09" stroke-width="1.5"/><circle cx="378.0" cy="205.5" r="7" fill="url(#ruby)" stroke="#5a0d09" stroke-width="1.5"/>
<circle cx="256" cy="256" r="120" fill="none" stroke="#fff3c4" stroke-width="1.5" opacity=".5"/>
<!-- TK -->
<text x="252" y="292" text-anchor="middle" font-family="BC" font-style="italic" font-weight="900" font-size="150" fill="#2a1a05" opacity=".55" transform="translate(4 6)">TK</text>
<text x="252" y="292" text-anchor="middle" font-family="BC" font-style="italic" font-weight="900" font-size="150" fill="url(#gold)" stroke="#4a3208" stroke-width="5" paint-order="stroke">TK</text>
<!-- SIM banner -->
<g transform="translate(256 336)" filter="url(#drop)">
 <path d="M-62 -20 h130 l-8 40 h-130 z" fill="url(#red)" stroke="#5a0d09" stroke-width="3"/>
 <text x="0" y="12" text-anchor="middle" font-family="BC" font-style="italic" font-weight="800" font-size="32" letter-spacing="3" fill="#fff">SIM</text>
</g>
<!-- sheen -->
<path d="M150 150 Q256 90 362 150 Q256 130 150 170z" fill="#fff" opacity=".12"/>
</svg>